<?xml version="1.0" encoding="iso-8859-1"?>
<svg version="1.1" id="Capa_1" xmlns="http://www.w3.org/2000/svg" xmlns:xlink="http://www.w3.org/1999/xlink" x="0px" y="0px"
	 width="1080px" height="800px" viewBox="0 0 32 20" style="enable-background:new 0 0 32 20;" xml:space="preserve">
<g transform="matrix(-1,0,0,1,32,0)">
	<polygon class="vessel" points="-4.79826,11.2036 -4.74045,11.2629 -4.79826,8.71392 -3.29519,7.23196 -2.31241,4.32732 1.73431,3.67526 3.17957,-0.0592784 79.8939,-0.0592784 81.1079,0.118557 82.1485,0.35567 83.4204,0.652062 84.4031,0.948454 85.2703,1.30412 86.0218,1.71907 86.7734,2.13402 87.5249,2.66753 88.2186,3.26031 88.6811,4.03093 88.9123,4.74227 88.9123,5.39433 88.6811,5.69072 88.2764,6.22423 87.6405,6.46134 87.1202,6.63918 86.8312,6.5799 86.4265,6.5799 85.964,6.5799 85.3859,6.52062 84.8078,6.46134 84.4609,6.40206 84.4609,6.69845 84.5766,6.93557 84.8656,7.35052 85.2703,7.52835 85.675,7.82474 86.3109,8.00258 86.9468,8.23969 87.4671,8.4768 88.1608,8.71392 88.8545,9.06959 89.2014,9.78093 89.2014,10.433 89.2592,10.9665 89.6061,15.9459 88.9702,17.0129 80.183,20.2732 77.6393,22.4072 78.2752,24.3634 78.6799,24.4227 78.6799,24.6598 76.5987,25.1933 73.0723,25.2526 69.9505,27.8608 68.5631,27.9201 68.2162,28.6314 71.3958,28.6907 71.3958,28.9871 68.0428,28.8686 67.3491,30.1727 68.274,30.232 69.4881,30.3505 69.4881,30.5876 69.0834,30.5876 69.1412,30.884 69.7771,30.9433 69.7771,31.1211 67.8694,31.1211 67.8694,30.884 68.6787,30.8247 68.6787,30.6469 67.2913,30.6469 66.3663,32.1289 67.5803,32.0103 67.8116,32.3067 66.4819,32.7216 66.5975,32.8402 66.5975,33.8479 66.3663,34.0258 66.1351,34.1443 65.6148,34.1443 65.4413,34.0258 65.3257,33.7294 65.2679,33.2552 65.0945,33.6701 65.0367,34.1443 64.921,34.4407 65.4413,34.5593 65.3257,34.6778 64.921,34.6778 64.8632,34.9149 65.3835,35.0335 65.3835,35.1521 64.8632,35.2113 64.5742,35.4485 64.1695,35.5077 64.4008,35.1521 64.8632,32.8402 64.7476,32.7216 64.9789,32.4253 65.2101,31.3582 65.0367,31.2397 65.0367,31.0026 65.4413,30.7655 65.6148,30.4098 65.557,29.8763 64.2851,31.1211 64.0539,31.0619 63.8226,30.884 63.7648,30.7062 63.418,30.8247 62.9555,30.5284 65.3257,27.9794 65.3835,25.3119 61.6259,25.2526 62.6664,22.1701 63.2445,21.2809 61.2212,14.6418 59.1978,14.4639 60.065,14.1675 60.9321,13.8711 60.9899,13.2784 60.7009,12.2113 60.4118,11.7964 12.8917,11.7964 11.0418,11.2629 -4.79826,11.2036  " onclick="alert('Vessel info')"/>
</g>
</svg>
