<?xml version="1.0" encoding="iso-8859-1"?>
<svg version="1.1" id="Capa_1" xmlns="http://www.w3.org/2000/svg" xmlns:xlink="http://www.w3.org/1999/xlink" x="0px" y="0px"
	 width="1080px" height="800px" viewBox="0 0 32 20" style="enable-background:new 0 0 32 20;" xml:space="preserve">
<g transform="matrix(-1,0,0,1,32,0)">
	<polygon class="vessel" points="27.333,8 26,4 18,4 18,0 14,0 12,4 8,4 6.667,8 0,8 6,18 30,18 32,8  " onclick="alert('Vessel info')"/>
</g>
<g transform="matrix(0.064,0,0,0.064,19.4569357,14.734397)"
    class="thr1">
  <g>
    <path d="M 46.826,15.001 C 45.577,10.102 40.592,7.139 35.688,8.385 31.977,9.329 25.199,13.482 22.667,17.57 22.563,17.535 22.461,17.506 22.355,17.474 22.351,12.666 18.817,5.588 16.178,2.83 12.681,-0.826 6.882,-0.958 3.225,2.54 -0.43,6.037 -0.559,11.835 2.936,15.491 c 2.47,2.583 8.676,6.11 13.397,6.735 0.016,0.477 0.098,0.938 0.242,1.371 -3.763,2.932 -7.326,9.197 -8.131,12.697 -1.133,4.933 1.945,9.846 6.878,10.979 4.932,1.133 9.847,-1.943 10.979,-6.876 0.805,-3.502 0.332,-10.694 -1.776,-14.976 0.223,-0.225 0.42,-0.475 0.595,-0.741 4.319,2.037 11.584,2.351 15.087,1.458 4.905,-1.245 7.865,-6.234 6.619,-11.137 z M 21.207,26.588 c -2.455,0 -4.453,-1.996 -4.453,-4.451 0,-2.457 1.998,-4.452 4.453,-4.452 2.457,0 4.455,1.996 4.455,4.452 0,2.455 -1.998,4.451 -4.455,4.451 z" />
    <path d="m 21.207,20.334 c -0.991,0 -1.801,0.807 -1.801,1.803 0,0.992 0.81,1.802 1.801,1.802 0.994,0 1.803,-0.81 1.803,-1.802 -0.002,-0.996 -0.809,-1.803 -1.803,-1.803 z" />
  </g>
</g>
<g transform="matrix(0.064,0,0,0.064,22.534739,14.734397)"
    class="thr2">
  <g>
      <path d="M 46.826,15.001 C 45.577,10.102 40.592,7.139 35.688,8.385 31.977,9.329 25.199,13.482 22.667,17.57 22.563,17.535 22.461,17.506 22.355,17.474 22.351,12.666 18.817,5.588 16.178,2.83 12.681,-0.826 6.882,-0.958 3.225,2.54 -0.43,6.037 -0.559,11.835 2.936,15.491 c 2.47,2.583 8.676,6.11 13.397,6.735 0.016,0.477 0.098,0.938 0.242,1.371 -3.763,2.932 -7.326,9.197 -8.131,12.697 -1.133,4.933 1.945,9.846 6.878,10.979 4.932,1.133 9.847,-1.943 10.979,-6.876 0.805,-3.502 0.332,-10.694 -1.776,-14.976 0.223,-0.225 0.42,-0.475 0.595,-0.741 4.319,2.037 11.584,2.351 15.087,1.458 4.905,-1.245 7.865,-6.234 6.619,-11.137 z M 21.207,26.588 c -2.455,0 -4.453,-1.996 -4.453,-4.451 0,-2.457 1.998,-4.452 4.453,-4.452 2.457,0 4.455,1.996 4.455,4.452 0,2.455 -1.998,4.451 -4.455,4.451 z" />
      <path d="m 21.207,20.334 c -0.991,0 -1.801,0.807 -1.801,1.803 0,0.992 0.81,1.802 1.801,1.802 0.994,0 1.803,-0.81 1.803,-1.802 -0.002,-0.996 -0.809,-1.803 -1.803,-1.803 z" />
  </g>
</g>
<g  transform="matrix(0.064,0,0,0.064,14.699688,18.132291)"
    class="thr3">
  <g>
      <path d="M 46.826,15.001 C 45.577,10.102 40.592,7.139 35.688,8.385 31.977,9.329 25.199,13.482 22.667,17.57 22.563,17.535 22.461,17.506 22.355,17.474 22.351,12.666 18.817,5.588 16.178,2.83 12.681,-0.826 6.882,-0.958 3.225,2.54 -0.43,6.037 -0.559,11.835 2.936,15.491 c 2.47,2.583 8.676,6.11 13.397,6.735 0.016,0.477 0.098,0.938 0.242,1.371 -3.763,2.932 -7.326,9.197 -8.131,12.697 -1.133,4.933 1.945,9.846 6.878,10.979 4.932,1.133 9.847,-1.943 10.979,-6.876 0.805,-3.502 0.332,-10.694 -1.776,-14.976 0.223,-0.225 0.42,-0.475 0.595,-0.741 4.319,2.037 11.584,2.351 15.087,1.458 4.905,-1.245 7.865,-6.234 6.619,-11.137 z M 21.207,26.588 c -2.455,0 -4.453,-1.996 -4.453,-4.451 0,-2.457 1.998,-4.452 4.453,-4.452 2.457,0 4.455,1.996 4.455,4.452 0,2.455 -1.998,4.451 -4.455,4.451 z" />
      <path d="m 21.207,20.334 c -0.991,0 -1.801,0.807 -1.801,1.803 0,0.992 0.81,1.802 1.801,1.802 0.994,0 1.803,-0.81 1.803,-1.802 -0.002,-0.996 -0.809,-1.803 -1.803,-1.803 z" />
  </g>
</g>
<g transform="matrix(0.064,0,0,0.064,3.335426,18.077309)"
    class="thr4">
  <g>
      <path d="M 46.826,15.001 C 45.577,10.102 40.592,7.139 35.688,8.385 31.977,9.329 25.199,13.482 22.667,17.57 22.563,17.535 22.461,17.506 22.355,17.474 22.351,12.666 18.817,5.588 16.178,2.83 12.681,-0.826 6.882,-0.958 3.225,2.54 -0.43,6.037 -0.559,11.835 2.936,15.491 c 2.47,2.583 8.676,6.11 13.397,6.735 0.016,0.477 0.098,0.938 0.242,1.371 -3.763,2.932 -7.326,9.197 -8.131,12.697 -1.133,4.933 1.945,9.846 6.878,10.979 4.932,1.133 9.847,-1.943 10.979,-6.876 0.805,-3.502 0.332,-10.694 -1.776,-14.976 0.223,-0.225 0.42,-0.475 0.595,-0.741 4.319,2.037 11.584,2.351 15.087,1.458 4.905,-1.245 7.865,-6.234 6.619,-11.137 z M 21.207,26.588 c -2.455,0 -4.453,-1.996 -4.453,-4.451 0,-2.457 1.998,-4.452 4.453,-4.452 2.457,0 4.455,1.996 4.455,4.452 0,2.455 -1.998,4.451 -4.455,4.451 z" />
      <path d="m 21.207,20.334 c -0.991,0 -1.801,0.807 -1.801,1.803 0,0.992 0.81,1.802 1.801,1.802 0.994,0 1.803,-0.81 1.803,-1.802 -0.002,-0.996 -0.809,-1.803 -1.803,-1.803 z" />
  </g>
</g>
<g transform="matrix(0.064,0,0,0.064,0.036457,18.077309)"
    class="thr5">
  <g>
      <path d="M 46.826,15.001 C 45.577,10.102 40.592,7.139 35.688,8.385 31.977,9.329 25.199,13.482 22.667,17.57 22.563,17.535 22.461,17.506 22.355,17.474 22.351,12.666 18.817,5.588 16.178,2.83 12.681,-0.826 6.882,-0.958 3.225,2.54 -0.43,6.037 -0.559,11.835 2.936,15.491 c 2.47,2.583 8.676,6.11 13.397,6.735 0.016,0.477 0.098,0.938 0.242,1.371 -3.763,2.932 -7.326,9.197 -8.131,12.697 -1.133,4.933 1.945,9.846 6.878,10.979 4.932,1.133 9.847,-1.943 10.979,-6.876 0.805,-3.502 0.332,-10.694 -1.776,-14.976 0.223,-0.225 0.42,-0.475 0.595,-0.741 4.319,2.037 11.584,2.351 15.087,1.458 4.905,-1.245 7.865,-6.234 6.619,-11.137 z M 21.207,26.588 c -2.455,0 -4.453,-1.996 -4.453,-4.451 0,-2.457 1.998,-4.452 4.453,-4.452 2.457,0 4.455,1.996 4.455,4.452 0,2.455 -1.998,4.451 -4.455,4.451 z" />
      <path d="m 21.207,20.334 c -0.991,0 -1.801,0.807 -1.801,1.803 0,0.992 0.81,1.802 1.801,1.802 0.994,0 1.803,-0.81 1.803,-1.802 -0.002,-0.996 -0.809,-1.803 -1.803,-1.803 z" />
  </g>
</g>
</svg>
